<svg width="32" height="32" viewBox="0 0 32 32" fill="none" xmlns="http://www.w3.org/2000/svg">
<g id="bi:twitter">
<g id="Group">
<path id="Vector" d="M10.052 30.6667C22.128 30.6667 28.734 20.4046 28.734 11.521C28.734 11.2339 28.734 10.9426 28.722 10.6554C30.0081 9.70058 31.1181 8.51841 32 7.16433C30.7986 7.70758 29.5255 8.06563 28.222 8.22684C29.5951 7.38511 30.6234 6.06073 31.116 4.49986C29.826 5.28366 28.414 5.83388 26.942 6.12644C25.9524 5.04552 24.6428 4.32944 23.2162 4.08912C21.7895 3.84881 20.3254 4.09767 19.0507 4.79715C17.7759 5.49663 16.7616 6.6077 16.1649 7.95826C15.5682 9.30881 15.4224 10.8235 15.75 12.2676C13.1395 12.1334 10.5856 11.4379 8.25409 10.2262C5.92254 9.01452 3.86537 7.31375 2.216 5.23418C1.37868 6.71734 1.12315 8.47175 1.50129 10.1411C1.87944 11.8105 2.86291 13.2697 4.252 14.2224C3.21108 14.1861 2.19304 13.8995 1.28 13.3855V13.4778C1.28179 15.0316 1.80661 16.537 2.76575 17.7397C3.72488 18.9424 5.0595 19.7685 6.544 20.0785C5.98053 20.2377 5.39846 20.3171 4.814 20.3144C4.40197 20.3157 3.99076 20.2765 3.586 20.1975C4.00557 21.535 4.82255 22.7044 5.92249 23.5419C7.02244 24.3794 8.35027 24.8431 9.72 24.868C7.39311 26.7424 4.5188 27.7589 1.56 27.754C1.03864 27.7563 0.517646 27.7254 0 27.6617C3.00303 29.6252 6.4906 30.6678 10.052 30.6667Z" fill="#13151F"/>
</g>
</g>
</svg>
