<svg width="180" height="182" viewBox="0 0 180 182" fill="none" xmlns="http://www.w3.org/2000/svg">
<circle cx="3" cy="3" r="3" fill="#4F46E5"/>
<circle cx="24.75" cy="3" r="3" fill="#4F46E5"/>
<circle cx="46.5" cy="3" r="3" fill="#4F46E5"/>
<circle cx="68.25" cy="3" r="3" fill="#4F46E5"/>
<circle cx="90" cy="3" r="3" fill="#4F46E5"/>
<circle cx="111.75" cy="3" r="3" fill="#4F46E5"/>
<circle cx="133.5" cy="3" r="3" fill="#4F46E5"/>
<circle cx="155.25" cy="3" r="3" fill="#4F46E5"/>
<circle cx="177" cy="3" r="3" fill="#4F46E5"/>
<circle cx="3" cy="25" r="3" fill="#4F46E5"/>
<circle cx="24.75" cy="25" r="3" fill="#4F46E5"/>
<circle cx="46.5" cy="25" r="3" fill="#4F46E5"/>
<circle cx="68.25" cy="25" r="3" fill="#4F46E5"/>
<circle cx="90" cy="25" r="3" fill="#4F46E5"/>
<circle cx="111.75" cy="25" r="3" fill="#4F46E5"/>
<circle cx="133.5" cy="25" r="3" fill="#4F46E5"/>
<circle cx="155.25" cy="25" r="3" fill="#4F46E5"/>
<circle cx="177" cy="25" r="3" fill="#4F46E5"/>
<circle cx="3" cy="47" r="3" fill="#4F46E5"/>
<circle cx="24.75" cy="47" r="3" fill="#4F46E5"/>
<circle cx="46.5" cy="47" r="3" fill="#4F46E5"/>
<circle cx="68.25" cy="47" r="3" fill="#4F46E5"/>
<circle cx="90" cy="47" r="3" fill="#4F46E5"/>
<circle cx="111.75" cy="47" r="3" fill="#4F46E5"/>
<circle cx="133.5" cy="47" r="3" fill="#4F46E5"/>
<circle cx="155.25" cy="47" r="3" fill="#4F46E5"/>
<circle cx="177" cy="47" r="3" fill="#4F46E5"/>
<circle cx="3" cy="69" r="3" fill="#4F46E5"/>
<circle cx="24.75" cy="69" r="3" fill="#4F46E5"/>
<circle cx="46.5" cy="69" r="3" fill="#4F46E5"/>
<circle cx="68.25" cy="69" r="3" fill="#4F46E5"/>
<circle cx="90" cy="69" r="3" fill="#4F46E5"/>
<circle cx="111.75" cy="69" r="3" fill="#4F46E5"/>
<circle cx="133.5" cy="69" r="3" fill="#4F46E5"/>
<circle cx="155.25" cy="69" r="3" fill="#4F46E5"/>
<circle cx="177" cy="69" r="3" fill="#4F46E5"/>
<circle cx="3" cy="91" r="3" fill="#4F46E5"/>
<circle cx="24.75" cy="91" r="3" fill="#4F46E5"/>
<circle cx="46.5" cy="91" r="3" fill="#4F46E5"/>
<circle cx="68.25" cy="91" r="3" fill="#4F46E5"/>
<circle cx="90" cy="91" r="3" fill="#4F46E5"/>
<circle cx="111.75" cy="91" r="3" fill="#4F46E5"/>
<circle cx="133.5" cy="91" r="3" fill="#4F46E5"/>
<circle cx="155.25" cy="91" r="3" fill="#4F46E5"/>
<circle cx="177" cy="91" r="3" fill="#4F46E5"/>
<circle cx="3" cy="113" r="3" fill="#4F46E5"/>
<circle cx="24.75" cy="113" r="3" fill="#4F46E5"/>
<circle cx="46.5" cy="113" r="3" fill="#4F46E5"/>
<circle cx="68.25" cy="113" r="3" fill="#4F46E5"/>
<circle cx="90" cy="113" r="3" fill="#4F46E5"/>
<circle cx="111.75" cy="113" r="3" fill="#4F46E5"/>
<circle cx="133.5" cy="113" r="3" fill="#4F46E5"/>
<circle cx="155.25" cy="113" r="3" fill="#4F46E5"/>
<circle cx="177" cy="113" r="3" fill="#4F46E5"/>
<circle cx="3" cy="135" r="3" fill="#4F46E5"/>
<circle cx="24.75" cy="135" r="3" fill="#4F46E5"/>
<circle cx="46.5" cy="135" r="3" fill="#4F46E5"/>
<circle cx="68.25" cy="135" r="3" fill="#4F46E5"/>
<circle cx="90" cy="135" r="3" fill="#4F46E5"/>
<circle cx="111.75" cy="135" r="3" fill="#4F46E5"/>
<circle cx="133.5" cy="135" r="3" fill="#4F46E5"/>
<circle cx="155.25" cy="135" r="3" fill="#4F46E5"/>
<circle cx="177" cy="135" r="3" fill="#4F46E5"/>
<circle cx="3" cy="157" r="3" fill="#4F46E5"/>
<circle cx="24.75" cy="157" r="3" fill="#4F46E5"/>
<circle cx="46.5" cy="157" r="3" fill="#4F46E5"/>
<circle cx="68.25" cy="157" r="3" fill="#4F46E5"/>
<circle cx="90" cy="157" r="3" fill="#4F46E5"/>
<circle cx="111.75" cy="157" r="3" fill="#4F46E5"/>
<circle cx="133.5" cy="157" r="3" fill="#4F46E5"/>
<circle cx="155.25" cy="157" r="3" fill="#4F46E5"/>
<circle cx="177" cy="157" r="3" fill="#4F46E5"/>
<circle cx="3" cy="179" r="3" fill="#4F46E5"/>
<circle cx="24.75" cy="179" r="3" fill="#4F46E5"/>
<circle cx="46.5" cy="179" r="3" fill="#4F46E5"/>
<circle cx="68.25" cy="179" r="3" fill="#4F46E5"/>
<circle cx="90" cy="179" r="3" fill="#4F46E5"/>
<circle cx="111.75" cy="179" r="3" fill="#4F46E5"/>
<circle cx="133.5" cy="179" r="3" fill="#4F46E5"/>
<circle cx="155.25" cy="179" r="3" fill="#4F46E5"/>
<circle cx="177" cy="179" r="3" fill="#4F46E5"/>
</svg>
