<svg width="104" height="24" viewBox="0 0 104 24" fill="none" xmlns="http://www.w3.org/2000/svg">
<path d="M2.432 15.192C2.83733 15.512 3.53067 15.9493 4.512 16.504C5.51467 17.0587 6.464 17.336 7.36 17.336C8.27733 17.336 8.736 16.984 8.736 16.28C8.736 15.96 8.608 15.6827 8.352 15.448C8.096 15.192 7.62667 14.904 6.944 14.584C6.26133 14.264 5.74933 14.0187 5.408 13.848C5.06667 13.656 4.608 13.3573 4.032 12.952C3.47733 12.5253 3.05067 12.088 2.752 11.64C1.89867 10.424 1.472 8.87733 1.472 7C1.472 5.12267 2.16533 3.544 3.552 2.264C4.96 0.962666 6.79467 0.311998 9.056 0.311998C10.592 0.311998 12.0107 0.482665 13.312 0.823999C14.6133 1.144 15.2853 1.57067 15.328 2.104C15.328 2.168 15.328 2.232 15.328 2.296C15.328 3.04267 15.0933 3.992 14.624 5.144C14.1547 6.27467 13.824 6.904 13.632 7.032C12.2667 6.328 11.04 5.976 9.952 5.976C8.88533 5.976 8.352 6.36 8.352 7.128C8.352 7.59733 8.74667 8.01333 9.536 8.376C9.70667 8.46133 9.952 8.57867 10.272 8.728C10.592 8.87733 10.9547 9.05867 11.36 9.272C11.7867 9.464 12.2347 9.72 12.704 10.04C13.1947 10.3387 13.7173 10.744 14.272 11.256C15.4027 12.3227 15.968 13.7307 15.968 15.48C15.968 17.7627 15.3387 19.6293 14.08 21.08C12.8213 22.5307 10.88 23.2773 8.256 23.32C6.976 23.32 5.81333 23.2133 4.768 23C3.744 22.7867 2.848 22.3707 2.08 21.752C1.312 21.1333 0.928 20.3867 0.928 19.512C0.928 18.6373 1.088 17.7733 1.408 16.92C1.728 16.0453 2.06933 15.4693 2.432 15.192ZM27.752 0.311998C29.3093 0.311998 30.6747 0.535999 31.848 0.983999C33.0427 1.41067 33.64 1.99733 33.64 2.744C33.64 3.49067 33.352 4.41867 32.776 5.528C32.2213 6.616 31.752 7.16 31.368 7.16C31.2613 7.16 31.1333 7.10667 30.984 7C30.856 6.872 30.536 6.744 30.024 6.616C29.5333 6.46667 29.1067 6.392 28.744 6.392C27.5067 6.392 26.504 6.82933 25.736 7.704C24.9893 8.57867 24.616 9.92267 24.616 11.736C24.616 13.528 25 14.8613 25.768 15.736C26.5573 16.6107 27.5493 17.048 28.744 17.048C29.2347 17.048 29.7787 16.984 30.376 16.856C30.9947 16.7067 31.432 16.504 31.688 16.248C31.7307 16.2053 31.816 16.184 31.944 16.184C32.072 16.184 32.3067 16.4293 32.648 16.92C33.0107 17.3893 33.3413 18.0187 33.64 18.808C33.9387 19.576 34.088 20.1733 34.088 20.6C34.088 21.432 33.448 22.0933 32.168 22.584C30.888 23.0747 29.3733 23.32 27.624 23.32C24.808 23.32 22.4933 22.328 20.68 20.344C18.8667 18.36 17.96 15.5653 17.96 11.96C17.96 8.33333 18.888 5.48533 20.744 3.416C22.6213 1.34667 24.9573 0.311998 27.752 0.311998ZM42.6495 22.552C42.6495 22.8933 41.6362 23.064 39.6095 23.064C37.5615 23.064 36.5375 22.904 36.5375 22.584V1.72C36.5375 0.973332 36.9322 0.599998 37.7215 0.599998H43.8335C49.4442 0.599998 52.2495 2.78667 52.2495 7.16C52.2495 8.48267 51.9935 9.688 51.4815 10.776C50.9695 11.8427 50.2442 12.696 49.3055 13.336L53.3375 20.056C53.1668 20.568 52.6122 21.1547 51.6735 21.816C50.3935 22.7333 49.3375 23.192 48.5055 23.192C47.6735 23.192 47.0548 22.8933 46.6495 22.296L43.6415 15.288H42.6495V22.552ZM42.6495 6.264V11.064H42.8095C44.8362 11.064 45.8495 10.2213 45.8495 8.536C45.8495 7.768 45.6468 7.20267 45.2415 6.84C44.8575 6.456 44.2175 6.264 43.3215 6.264H42.6495ZM64.9165 23.32C61.9298 23.32 59.4872 22.3387 57.5885 20.376C55.7112 18.4133 54.7725 15.5547 54.7725 11.8C54.7725 8.024 55.7218 5.16533 57.6205 3.224C59.5405 1.28267 62.0045 0.311998 65.0125 0.311998C68.0418 0.311998 70.4845 1.272 72.3405 3.192C74.1965 5.09067 75.1245 7.98133 75.1245 11.864C75.1245 15.7253 74.1752 18.6053 72.2765 20.504C70.3778 22.3813 67.9245 23.32 64.9165 23.32ZM64.9485 6.456C63.9245 6.456 63.0605 6.92533 62.3565 7.864C61.6738 8.80267 61.3325 10.1253 61.3325 11.832C61.3325 13.5173 61.6632 14.8187 62.3245 15.736C62.9858 16.632 63.8498 17.08 64.9165 17.08C66.0045 17.08 66.8792 16.6213 67.5405 15.704C68.2232 14.7867 68.5645 13.4747 68.5645 11.768C68.5645 10.0613 68.2125 8.74933 67.5085 7.832C66.8258 6.91467 65.9725 6.456 64.9485 6.456ZM77.3738 21.112V1.208C77.3738 0.759999 78.4511 0.535999 80.6058 0.535999C82.7818 0.535999 83.8698 0.759999 83.8698 1.208V16.888H88.7978C89.1818 16.888 89.4484 17.3893 89.5978 18.392C89.6618 18.8827 89.6938 19.384 89.6938 19.896C89.6938 20.408 89.6618 20.9307 89.5978 21.464C89.4271 22.488 89.1498 23 88.7658 23H78.9098C78.4404 23 78.0671 22.808 77.7898 22.424C77.5124 22.04 77.3738 21.6027 77.3738 21.112ZM91.28 21.112V1.208C91.28 0.759999 92.3573 0.535999 94.512 0.535999C96.688 0.535999 97.776 0.759999 97.776 1.208V16.888H102.704C103.088 16.888 103.355 17.3893 103.504 18.392C103.568 18.8827 103.6 19.384 103.6 19.896C103.6 20.408 103.568 20.9307 103.504 21.464C103.333 22.488 103.056 23 102.672 23H92.816C92.3467 23 91.9733 22.808 91.696 22.424C91.4187 22.04 91.28 21.6027 91.28 21.112Z" fill="#4F46E5"/>
</svg>
